<?xml version="1.0" standalone="no"?><!DOCTYPE svg PUBLIC "-//W3C//DTD SVG 1.1//EN" "http://www.w3.org/Graphics/SVG/1.1/DTD/svg11.dtd" ><svg xmlns="http://www.w3.org/2000/svg"><metadata></metadata><defs><font id="Google:Roboto Condensed Italic:2016" horiz-adv-x="1562"><font-face font-family="Roboto Condensed" font-weight="400" font-stretch="normal" units-per-em="2048" panose-1="2 0 0 0 0 0 0 0 0 0" ascent="1900" descent="-500" x-height="0" bbox="-195 -471 1598 1858" underline-thickness="100" underline-position="-150" unicode-range="U+0021-2122" /><missing-glyph horiz-adv-x="813" d="M104 0 l0 1456 l595 0 l0 -1456 l-595 0 ZM184 1402 l216 -605 l215 605 l-431 0 ZM424 728 l229 -642 l0 1284 l-229 -642 ZM149 1362 l0 -1268 l226 634 l-226 634 ZM184 54 l431 0 l-215 605 l-216 -605 Z" /><glyph glyph-name="exclam" unicode="!" d="M485 1456 l-194 -1045 l-155 0 l168 1045 l181 0 ZM64 91 q2 43 28 76 q26 33 72 34 q46 1 72 -30.5 q26 -31.5 24 -75.5 q-2 -44 -28.5 -75.5 q-26.5 -31.5 -71.5 -32.5 q-45 -1 -71 30 q-26 31 -25 74 Z" /><glyph glyph-name="quotedbl" unicode="&quot;" d="M394 1390 l-83 -347 l-110 0 l78 493 l138 0 l-23 -146 ZM656 1390 l-83 -347 l-110 0 l78 493 l138 0 l-23 -146 Z" /><glyph glyph-name="numbersign" unicode="#" d="M474 0 l138 410 l-194 0 l-138 -410 l-135 0 l137 410 l-188 0 l24 138 l210 0 l118 353 l-205 0 l24 139 l227 0 l140 416 l136 0 l-140 -416 l194 0 l140 416 l135 0 l-139 -416 l156 0 l-24 -139 l-178 0 l-118 -353 l174 0 l-24 -138 l-196 0 l-138 -410 l-136 0 ZM463 548 l195 0 l119 353 l-195 0 l-119 -353 Z" /><glyph glyph-name="dollar" unicode="$" d="M839 384 q-12 -165 -109 -271 q-97 -106 -261 -129 l-35 -192 l-137 0 l35 193 q-160 34 -211 167 q-51 133 -41 277 l174 0 q-5 -61 4 -127 q9 -66 45 -112.5 q36 -46.5 113 -48.5 q109 -3 175 68 q66 71 78 173 q10 95 -37 159 q-47 64 -129 104 q-137 67 -211 167 q-74 100 -62 260 q12 156 99.5 265 q87.5 109 244.5 135 l39 220 l137 0 l-40 -223 q103 -26 152 -101.5 q49 -75.5 61.5 -172.5 q12.5 -97 5.5 -187 l-172 0 q4 52 -1 123.5 q-5 71.5 -35.5 126.5 q-30.5 55 -104.5 57 q-103 3 -154 -73 q-51 -76 -61 -166 q-10 -99 37 -161.5 q47 -62.5 133 -105.5 q137 -69 208.5 -166.5 q71.5 -97.5 59.5 -258.5 Z" /><glyph glyph-name="percent" unicode="%" d="M193 1099 l7 76 q11 113 81 209.5 q70 96.5 197 93.5 q123 -3 174 -99 q51 -96 44 -203 l-7 -77 q-11 -113 -81 -208 q-70 -95 -196 -92 q-121 3 -173.5 98 q-52.5 95 -45.5 202 ZM328 1176 l-7 -79 q-3 -51 12.5 -114 q15.5 -63 83.5 -64 q70 -2 103.5 60 q33.5 62 40.5 119 l7 79 q4 51 -11 115.5 q-15 64.5 -84 65.5 q-71 2 -104 -60.5 q-33 -62.5 -41 -121.5 ZM1081 1241 l-771 -1128 l-91 72 l771 1128 l91 -72 ZM621 279 l7 77 q11 113 81.5 208.5 q70.5 95.5 197.5 92.5 q121 -2 172.5 -97.5 q51.5 -95.5 44.5 -202.5 l-6 -78 q-12 -113 -81.5 -208.5 q-69.5 -95.5 -196.5 -92.5 q-122 3 -173.5 98.5 q-51.5 95.5 -45.5 202.5 ZM757 358 l-7 -81 q-4 -51 11.5 -114.5 q15.5 -63.5 83.5 -65.5 q71 -1 104 61 q33 62 40 120 l8 80 q4 51 -11.5 115 q-15.5 64 -83.5 66 q-71 1 -104.5 -61 q-33.5 -62 -40.5 -120 Z" /><glyph glyph-name="ampersand" unicode="&amp;" d="M771 0 l-52 107 q-65 -58 -144 -93 q-79 -35 -168 -33 q-171 3 -262 121 q-91 118 -77 282 q11 140 99 234.5 q88 94.5 195 170.5 q-37 77 -66 157.5 q-29 80.5 -23 168.5 q11 146 98.5 256 q87.5 110 246.5 106 q124 -3 196 -91.5 q72 -88.5 65 -208.5 q-7 -107 -63 -185 q-56 -78 -137 -141 l-111 -85 l186 -362 q68 122 89 268 l152 0 q-12 -115 -48.5 -221 q-36.5 -106 -109.5 -197 l127 -254 l-193 0 ZM442 1122 q-6 -59 12.5 -115.5 q18.5 -56.5 42.5 -109.5 l85 66 q55 43 91 93 q36 50 43 122 q5 54 -22.5 101.5 q-27.5 47.5 -88.5 47.5 q-78 0 -116.5 -69.5 q-38.5 -69.5 -46.5 -135.5 ZM244 384 q-12 -92 27 -171 q39 -79 144 -81 q67 -2 124 33 q57 35 104 77 l-208 421 l-35 -27 q-56 -48 -101.5 -112.5 q-45.5 -64.5 -54.5 -139.5 Z" /><glyph glyph-name="quotesingle" unicode="&#39;" d="M394 1536 l-19 -117 l-76 -361 l-127 0 l60 376 l16 102 l146 0 Z" /><glyph glyph-name="parenleft" unicode="(" d="M123 577 l2 12 q28 189 95.5 392.5 q67.5 203.5 183 379 q115.5 175.5 287.5 283.5 l25 -124 q-194 -177 -286 -426 q-92 -249 -131 -501 l-2 -14 q-20 -139 -28.5 -313 q-8.5 -174 23 -341.5 q31.5 -167.5 131.5 -283.5 l-46 -110 q-137 121 -198.5 303 q-61.5 182 -70 379.5 q-8.5 197.5 14.5 363.5 Z" /><glyph glyph-name="parenright" unicode=")" d="M497 597 l-2 -11 q-28 -189 -95 -394 q-67 -205 -183 -382 q-116 -177 -290 -281 l-25 114 q195 180 288 432 q93 252 132 506 l2 14 q20 138 27 312 q7 174 -25 341 q-32 167 -129 283 l46 111 q136 -121 198 -303 q62 -182 70.5 -379 q8.5 -197 -14.5 -363 Z" /><glyph glyph-name="asterisk" unicode="*" d="M143 716 l241 272 l-277 90 l69 143 l278 -112 l51 348 l149 0 l-70 -345 l304 109 l19 -160 l-315 -91 l146 -275 l-128 -87 l-130 289 l-223 -278 l-114 97 Z" /><glyph glyph-name="plus" unicode="+" d="M899 607 l-319 0 l-80 -461 l-173 0 l80 461 l-322 0 l31 174 l321 0 l74 425 l173 0 l-74 -425 l320 0 l-31 -174 Z" /><glyph glyph-name="comma" unicode="," d="M235 220 l-24 -148 q-17 -109 -77 -203 q-60 -94 -147 -160 l-100 75 q52 64 90.5 133.5 q38.5 69.5 54.5 150.5 l26 152 l177 0 Z" /><glyph glyph-name="hyphen" unicode="-" d="M465 695 l-27 -152 l-402 0 l27 152 l402 0 Z" /><glyph glyph-name="period" unicode="." d="M53 95 q0 49 31.5 82 q31.5 33 80.5 34 q49 1 80.5 -30 q31.5 -31 30.5 -80 q0 -49 -31.5 -81 q-31.5 -32 -80.5 -33 q-48 -1 -80 29 q-32 30 -31 79 Z" /><glyph glyph-name="slash" unicode="/" d="M823 1456 l-769 -1581 l-153 0 l771 1581 l151 0 Z" /><glyph glyph-name="zero" unicode="0" d="M908 844 l-33 -221 q-15 -102 -43 -215.5 q-28 -113.5 -80 -212 q-52 -98.5 -137 -159 q-85 -60.5 -215 -56.5 q-123 3 -188 69 q-65 66 -88 166 q-23 100 -20 208.5 q3 108.5 14 198.5 l33 222 q20 136 65 285 q45 149 141 250.5 q96 101.5 268 96.5 q123 -3 188 -67 q65 -64 88.5 -161.5 q23.5 -97.5 20.5 -205 q-3 -107.5 -14 -198.5 ZM699 592 l42 284 q6 46 13.5 119 q7.5 73 2 148 q-5.5 75 -37.5 127.5 q-32 52.5 -106 55.5 q-109 6 -167 -74.5 q-58 -80.5 -82.5 -189 q-24.5 -108.5 -35.5 -187.5 l-42 -284 q-5 -44 -13 -118.5 q-8 -74.5 -2.5 -151.5 q5.5 -77 37 -131.5 q31.5 -54.5 104.5 -58.5 q110 -6 168 77 q58 83 83 194 q25 111 36 190 Z" /><glyph glyph-name="one" unicode="1" d="M770 1464 l-249 -1464 l-173 0 l214 1227 l-322 -135 l32 177 l468 195 l30 0 Z" /><glyph glyph-name="two" unicode="2" d="M834 152 l-24 -152 l-791 0 l22 141 l465 524 q75 86 151.5 187.5 q76.5 101.5 89.5 220.5 q10 80 -20 164.5 q-30 84.5 -128 87.5 q-130 6 -190 -90 q-60 -96 -75 -206 l-171 -1 q18 184 133 318.5 q115 134.5 313 129.5 q164 -3 247 -114 q83 -111 69 -268 q-13 -150 -102.5 -280.5 q-89.5 -130.5 -186.5 -238.5 l-380 -423 l578 0 Z" /><glyph glyph-name="three" unicode="3" d="M465 666 l-122 1 l25 152 l102 -1 q114 1 183.5 73.5 q69.5 72.5 80.5 184.5 q8 86 -20 167 q-28 81 -133 83 q-108 3 -162 -77 q-54 -80 -68 -173 l-170 -1 q16 165 126 285 q110 120 285 117 q173 -4 251 -124.5 q78 -120.5 65 -280.5 q-10 -111 -74 -194.5 q-64 -83.5 -160 -133.5 q95 -48 124.5 -140 q29.5 -92 21.5 -191 q-15 -177 -128 -307.5 q-113 -130.5 -302 -125.5 q-174 4 -256 124 q-82 120 -74 281 l173 0 q-6 -89 27.5 -169.5 q33.5 -80.5 139.5 -83.5 q120 -4 179 84 q59 88 69 194 q10 102 -30.5 177 q-40.5 75 -152.5 79 Z" /><glyph glyph-name="four" unicode="4" d="M33 457 l693 999 l188 0 l-168 -966 l158 0 l-27 -152 l-157 0 l-59 -338 l-173 0 l59 338 l-535 0 l21 119 ZM236 490 l337 0 l127 697 l-14 -23 l-450 -674 Z" /><glyph glyph-name="five" unicode="5" d="M345 695 l-142 39 l174 722 l617 0 l-27 -171 l-469 0 l-103 -397 q43 29 90.5 46 q47.5 17 99.5 17 q127 -1 193.5 -78.5 q66.5 -77.5 87.5 -188.5 q21 -111 12 -213 q-11 -125 -63 -239 q-52 -114 -147 -185.5 q-95 -71.5 -234 -67.5 q-171 4 -248 127.5 q-77 123.5 -80 277.5 l162 0 q3 -87 38 -168 q35 -81 138 -84 q89 -2 143.5 52.5 q54.5 54.5 82 133.5 q27.5 79 34.5 152 q6 61 -4 134 q-10 73 -48 126 q-38 53 -118 55 q-61 2 -104 -24 q-43 -26 -85 -66 Z" /><glyph glyph-name="six" unicode="6" d="M864 481 q-11 -120 -61.5 -237 q-50.5 -117 -142.5 -192.5 q-92 -75.5 -230 -71.5 q-141 3 -212.5 96.5 q-71.5 93.5 -91.5 222.5 q-20 129 -6 240 l12 87 q28 204 99 395 q71 191 212 314.5 q141 123.5 381 123.5 l17 0 l-15 -157 l-10 0 q-146 2 -239.5 -64 q-93.5 -66 -150.5 -173.5 q-57 -107.5 -94 -230.5 q50 55 112 88.5 q62 33.5 139 32.5 q123 -3 187 -79.5 q64 -76.5 84 -185.5 q20 -109 10 -209 ZM294 532 q-5 -53 -3.5 -147 q1.5 -94 33.5 -171.5 q32 -77.5 116 -81.5 q87 -4 140 53 q53 57 79.5 138.5 q26.5 81.5 32.5 149.5 q5 55 0 132 q-5 77 -38 136.5 q-33 59.5 -110 62.5 q-78 2 -149 -60.5 q-71 -62.5 -92 -135.5 l-9 -76 Z" /><glyph glyph-name="seven" unicode="7" d="M1028 1456 l-18 -114 l-692 -1342 l-189 0 l690 1304 l-626 0 l24 152 l811 0 Z" /><glyph glyph-name="eight" unicode="8" d="M831 403 q-15 -177 -129.5 -302.5 q-114.5 -125.5 -300.5 -121.5 q-171 5 -253.5 125.5 q-82.5 120.5 -69.5 281.5 q11 126 79.5 220 q68.5 94 180.5 150 q-69 57 -95 141 q-26 84 -19 171 q13 167 117.5 290 q104.5 123 282.5 119 q164 -5 238.5 -122.5 q74.5 -117.5 61.5 -268.5 q-10 -115 -71.5 -200.5 q-61.5 -85.5 -159.5 -140.5 q82 -59 114 -152 q32 -93 24 -190 ZM750 1082 q7 74 -19.5 157.5 q-26.5 83.5 -118.5 85.5 q-105 3 -157 -84 q-52 -87 -60 -175 q-7 -76 19 -158 q26 -82 121 -84 q103 -3 155 83.5 q52 86.5 60 174.5 ZM661 407 q8 86 -25 175.5 q-33 89.5 -138 92.5 q-116 3 -176.5 -91 q-60.5 -94 -70.5 -194 q-9 -90 23 -173.5 q32 -83.5 138 -85.5 q118 -3 178.5 84 q60.5 87 70.5 192 Z" /><glyph glyph-name="nine" unicode="9" d="M887 820 q-29 -206 -97.5 -394 q-68.5 -188 -208.5 -308 q-140 -120 -382 -122 l-17 0 l13 158 l11 0 q152 -2 246.5 61.5 q94.5 63.5 149.5 171 q55 107.5 90 237.5 q-50 -56 -113 -97 q-63 -41 -141 -40 q-124 2 -187 81 q-63 79 -82 189.5 q-19 110.5 -10 208.5 q12 120 61.5 239 q49.5 119 141 197 q91.5 78 230.5 74 q150 -4 219.5 -103 q69.5 -99 84 -235 q14.5 -136 0.5 -251 l-9 -67 ZM330 976 q-5 -55 0 -133.5 q5 -78.5 37.5 -139.5 q32.5 -61 109.5 -63 q85 -3 145.5 63.5 q60.5 66.5 95.5 132.5 l9 76 q5 54 4 150.5 q-1 96.5 -32.5 177 q-31.5 80.5 -116.5 84.5 q-87 4 -140 -55.5 q-53 -59.5 -79.5 -142 q-26.5 -82.5 -32.5 -150.5 Z" /><glyph glyph-name="colon" unicode=":" d="M47 95 q0 49 31.5 82 q31.5 33 80.5 34 q49 1 80.5 -30 q31.5 -31 30.5 -80 q0 -49 -31.5 -81 q-31.5 -32 -80.5 -33 q-48 -1 -80 29 q-32 30 -31 79 ZM199 978 q0 49 31.5 82 q31.5 33 80.5 34 q49 1 80.5 -30 q31.5 -31 30.5 -80 q0 -49 -31.5 -81 q-31.5 -32 -80.5 -33 q-48 -1 -80 29 q-32 30 -31 79 Z" /><glyph glyph-name="semicolon" unicode=";" d="M176 978 q0 49 31.5 82 q31.5 33 80.5 34 q49 1 80.5 -30 q31.5 -31 30.5 -80 q0 -49 -31.5 -81 q-31.5 -32 -80.5 -33 q-48 -1 -80 29 q-32 30 -31 79 ZM249 220 l-24 -148 q-17 -109 -77 -203 q-60 -94 -147 -160 l-100 75 q52 64 90.5 133.5 q38.5 69.5 54.5 150.5 l26 152 l177 0 Z" /><glyph glyph-name="less" unicode="&lt;" d="M672 201 l-599 380 l25 145 l731 377 l-37 -206 l-538 -257 l451 -253 l-33 -186 Z" /><glyph glyph-name="equal" unicode="=" d="M890 975 l-29 -161 l-680 0 l28 161 l681 0 ZM818 560 l-29 -161 l-680 0 l29 161 l680 0 Z" /><glyph glyph-name="greater" unicode="&gt;" d="M218 1095 l635 -379 l-26 -145 l-767 -379 l36 201 l573 263 l-483 258 l32 181 Z" /><glyph glyph-name="question" unicode="?" d="M448 410 l-169 -1 q14 125 61.5 211 q47.5 86 133.5 176 q64 67 120.5 137.5 q56.5 70.5 68.5 166.5 q9 70 -13 142 q-22 72 -109 75 q-88 2 -136 -61 q-48 -63 -63 -140 l-172 -1 q18 154 119.5 260 q101.5 106 264.5 102 q159 -4 229 -114.5 q70 -110.5 57 -258.5 q-13 -140 -98 -244 q-85 -104 -179 -197 q-53 -53 -78.5 -117 q-25.5 -64 -36.5 -136 ZM213 91 q1 43 27 76 q26 33 72 34 q46 1 72 -31 q26 -32 24 -76 q-1 -43 -28 -74.5 q-27 -31.5 -72 -32.5 q-45 -2 -71 29.5 q-26 31.5 -24 74.5 Z" /><glyph glyph-name="at" unicode="@" d="M888 -366 q-66 -48 -148.5 -68 q-82.5 -20 -163.5 -19 q-186 3 -295.5 92 q-109.5 89 -159 229.5 q-49.5 140.5 -53.5 300 q-4 159.5 21 304.5 q27 158 92.5 327 q65.5 169 170.5 313.5 q105 144.5 250 233 q145 88.5 331 84.5 q185 -3 293.5 -92.5 q108.5 -89.5 157.5 -229 q49 -139.5 53 -299 q4 -159.5 -20 -302.5 q-18 -108 -64 -233 q-46 -125 -131 -212.5 q-85 -87.5 -220 -84.5 q-156 4 -176 162 q-40 -56 -95 -110 q-55 -54 -131 -53 q-105 2 -143 81 q-38 79 -37 181 q1 102 13 172 q13 77 45 176.5 q32 99.5 84.5 192.5 q52.5 93 128 153 q75.5 60 175.5 58 q73 -2 128.5 -31 q55.5 -29 107.5 -77 l-127 -555 q-5 -29 -12 -83.5 q-7 -54.5 5 -100.5 q12 -46 63 -48 q91 -5 146 71.5 q55 76.5 83.5 176 q28.5 99.5 38.5 164.5 q20 120 24.5 256 q4.5 136 -27.5 257 q-32 121 -118.5 198.5 q-86.5 77.5 -247.5 80.5 q-161 4 -283 -73.5 q-122 -77.5 -207.5 -203.5 q-85.5 -126 -139 -271.5 q-53.5 -145.5 -76.5 -279.5 q-20 -111 -25 -247.5 q-5 -136.5 25.5 -261.5 q30.5 -125 113.5 -206.5 q83 -81.5 240 -83.5 q76 -1 148.5 19.5 q72.5 20.5 137.5 57.5 l24 -116 ZM585 410 q-6 -35 -13 -104 q-7 -69 8 -127 q15 -58 76 -60 q62 -2 111 68.5 q49 70.5 64 120.5 q1 5 1.5 10.5 q0.5 5.5 1.5 10.5 l126 511 q-40 22 -80 24 q-101 5 -161.5 -79 q-60.5 -84 -91 -193.5 q-30.5 -109.5 -42.5 -181.5 Z" /><glyph glyph-name="A" unicode="a" d="M-66 0 l707 1456 l155 0 l202 -1456 l-176 0 l-45 381 l-476 0 l-177 -381 l-190 0 ZM374 539 l384 0 l-77 659 l-307 -659 Z" /><glyph glyph-name="B" unicode="b" d="M937 428 q-15 -194 -137.5 -311.5 q-122.5 -117.5 -318.5 -116.5 l-433 0 l252 1456 l392 -1 q175 -5 261.5 -105 q86.5 -100 72.5 -274 q-10 -111 -75 -188 q-65 -77 -161 -126 q95 -42 125 -140.5 q30 -98.5 22 -193.5 ZM453 1298 l-81 -462 l218 -2 q107 2 174.5 71.5 q67.5 69.5 80.5 172.5 q11 94 -22.5 154.5 q-33.5 60.5 -134.5 64.5 l-235 1 ZM760 427 q11 93 -18 170.5 q-29 77.5 -137 82.5 l-259 1 l-91 -524 l232 -2 q120 1 189.5 79.5 q69.5 78.5 83.5 192.5 Z" /><glyph glyph-name="C" unicode="c" d="M832 462 l175 2 q-30 -212 -159.5 -351 q-129.5 -139 -355.5 -133 q-164 4 -250.5 100.5 q-86.5 96.5 -112 237 q-25.5 140.5 -7.5 276.5 l42 269 q24 152 91.5 294.5 q67.5 142.5 186 232.5 q118.5 90 293.5 86 q215 -5 298 -149.5 q83 -144.5 75 -338.5 l-180 1 q3 79 -8.5 153.5 q-11.5 74.5 -55.5 124 q-44 49.5 -140 52.5 q-125 4 -203 -66.5 q-78 -70.5 -119.5 -177 q-41.5 -106.5 -57.5 -210.5 l-42 -272 q-11 -84 -8.5 -189 q2.5 -105 48 -184 q45.5 -79 160.5 -84 q161 -7 230.5 89.5 q69.5 96.5 99.5 236.5 Z" /><glyph glyph-name="D" unicode="d" d="M48 0 l252 1456 l326 -1 q172 -4 273 -89.5 q101 -85.5 137 -222 q36 -136.5 16 -292.5 l-37 -247 q-40 -263 -197.5 -434.5 q-157.5 -171.5 -437.5 -169.5 l-332 0 ZM621 1297 l-168 1 l-198 -1141 l130 -1 q210 -1 316 126.5 q106 127.5 136 321.5 l38 250 q13 106 2 206 q-11 100 -69.5 166.5 q-58.5 66.5 -186.5 70.5 Z" /><glyph glyph-name="E" unicode="e" d="M48 0 l252 1456 l752 0 l-28 -158 l-571 0 l-82 -468 l499 0 l-27 -157 l-498 0 l-90 -516 l581 0 l-28 -157 l-760 0 Z" /><glyph glyph-name="F" unicode="f" d="M48 0 l252 1456 l737 0 l-28 -158 l-556 0 l-87 -497 l477 0 l-28 -158 l-476 0 l-112 -643 l-179 0 Z" /><glyph glyph-name="G" unicode="g" d="M1058 725 l-84 -542 q-80 -107 -200.5 -156 q-120.5 -49 -251.5 -47 q-171 2 -265 94 q-94 92 -124 231.5 q-30 139.5 -11 286.5 l42 273 q23 161 87 302 q64 141 180.5 227 q116.5 86 299.5 82 q201 -5 294 -131.5 q93 -126.5 89 -315.5 l-179 1 q1 113 -42.5 198 q-43.5 85 -171.5 90 q-131 5 -208 -62.5 q-77 -67.5 -115.5 -173.5 q-38.5 -106 -54.5 -215 l-42 -276 q-12 -91 -4 -196 q8 -105 60 -180.5 q52 -75.5 172 -76.5 q79 -2 141 23 q62 25 123 72 l61 336 l-260 0 l28 156 l436 0 Z" /><glyph glyph-name="H" unicode="h" d="M794 0 l117 673 l-566 0 l-118 -673 l-179 0 l252 1456 l180 0 l-109 -626 l567 0 l108 626 l180 0 l-253 -1456 l-179 0 Z" /><glyph glyph-name="I" unicode="i" d="M488 1456 l-253 -1456 l-180 0 l253 1456 l180 0 Z" /><glyph glyph-name="J" unicode="j" d="M613 424 l175 1032 l179 0 l-176 -1031 q-25 -180 -134.5 -315.5 q-109.5 -135.5 -307.5 -130.5 q-186 5 -262.5 130 q-76.5 125 -64.5 294 l180 0 q-7 -89 21 -176 q28 -87 138 -91 q120 -4 178.5 92 q58.5 96 73.5 196 Z" /><glyph glyph-name="K" unicode="k" d="M765 0 l-276 669 l-177 -179 l-85 -490 l-179 0 l252 1456 l180 0 l-120 -690 l143 155 l466 535 l227 -1 l-578 -651 l349 -804 l-202 0 Z" /><glyph glyph-name="L" unicode="l" d="M809 157 l-28 -157 l-733 0 l252 1456 l180 0 l-225 -1299 l554 0 Z" /><glyph glyph-name="M" unicode="m" d="M690 271 l574 1185 l233 0 l-253 -1456 l-179 0 l100 577 l110 537 l-557 -1114 l-137 0 l-173 1144 l-84 -585 l-97 -559 l-179 0 l252 1456 l227 0 l163 -1185 Z" /><glyph glyph-name="N" unicode="n" d="M1225 1456 l-252 -1456 l-176 0 l-373 1131 l-196 -1131 l-180 0 l252 1456 l175 0 l375 -1134 l197 1134 l178 0 Z" /><glyph glyph-name="O" unicode="o" d="M1113 854 l-39 -252 q-24 -157 -89 -301 q-65 -144 -181.5 -235 q-116.5 -91 -297.5 -86 q-170 4 -259 99.5 q-89 95.5 -114.5 237 q-25.5 141.5 -7.5 284.5 l39 253 q23 154 89 299 q66 145 183.5 236.5 q117.5 91.5 296.5 86.5 q172 -4 260.5 -99 q88.5 -95 113.5 -237 q25 -142 6 -286 ZM897 601 l39 257 q12 91 8 195.5 q-4 104.5 -52.5 180 q-48.5 75.5 -169.5 79.5 q-128 5 -206 -65.5 q-78 -70.5 -118.5 -178 q-40.5 -107.5 -56.5 -213.5 l-38 -256 q-11 -89 -6.5 -194 q4.5 -105 52.5 -182 q48 -77 167 -82 q130 -5 208 65.5 q78 70.5 117.5 178 q39.5 107.5 55.5 215.5 Z" /><glyph glyph-name="P" unicode="p" d="M609 570 l-282 1 l-100 -571 l-179 0 l252 1456 l439 -1 q188 -6 280.5 -130.5 q92.5 -124.5 76.5 -304.5 q-18 -208 -148 -329.5 q-130 -121.5 -339 -120.5 ZM453 1298 l-99 -570 l263 -2 q133 1 209 83 q76 82 91 209 q12 102 -27 187.5 q-39 85.5 -155 91.5 l-282 1 Z" /><glyph glyph-name="Q" unicode="q" d="M957 -134 l-134 -112 l-210 238 q-65 -12 -119 -11 q-170 3 -257.5 99.5 q-87.5 96.5 -113 238.5 q-25.5 142 -7.5 283 l39 252 q23 155 89 299.5 q66 144.5 183.5 236 q117.5 91.5 296.5 86.5 q172 -4 261 -99 q89 -95 114 -236.5 q25 -141.5 6 -286.5 l-39 -252 q-25 -158 -87 -300 q-62 -142 -198 -235 l176 -201 ZM889 602 l39 256 q12 92 8 196 q-4 104 -52.5 179.5 q-48.5 75.5 -169.5 79.5 q-128 5 -206 -65.5 q-78 -70.5 -118.5 -178 q-40.5 -107.5 -56.5 -213.5 l-37 -255 q-12 -89 -7.5 -194.5 q4.5 -105.5 52 -182.5 q47.5 -77 166.5 -82 q131 -5 209 65.5 q78 70.5 118 178.5 q40 108 55 216 Z" /><glyph glyph-name="R" unicode="r" d="M731 0 l-149 590 l-251 0 l-103 -590 l-179 0 l252 1456 l383 -1 q194 -5 284.5 -122.5 q90.5 -117.5 73.5 -305.5 q-26 -284 -286 -397 l168 -617 l-1 -13 l-192 0 ZM454 1298 l-96 -551 l206 -2 q125 1 204.5 81 q79.5 80 94.5 202 q12 107 -26 185.5 q-38 78.5 -157 83.5 l-226 1 Z" /><glyph glyph-name="S" unicode="s" d="M730 376 q15 116 -47 174 q-62 58 -160 100 q-140 60 -236 158 q-96 98 -82 264 q14 180 144.5 294 q130.5 114 309.5 110 q188 -5 283.5 -134.5 q95.5 -129.5 84.5 -305.5 l-180 0 q9 108 -32 194 q-41 86 -166 88 q-111 3 -181.5 -67 q-70.5 -70 -82.5 -177 q-13 -103 52.5 -161.5 q65.5 -58.5 150.5 -94.5 q153 -64 244.5 -163.5 q91.5 -99.5 76.5 -277.5 q-16 -187 -149 -294.5 q-133 -107.5 -317 -102.5 q-189 4 -296.5 131.5 q-107.5 127.5 -96.5 311.5 l180 -1 q-10 -117 42.5 -200 q52.5 -83 180.5 -85 q112 -3 187.5 62 q75.5 65 89.5 177 Z" /><glyph glyph-name="T" unicode="t" d="M179 1298 l28 158 l920 0 l-28 -158 l-371 0 l-225 -1298 l-178 0 l225 1298 l-371 0 Z" /><glyph glyph-name="U" unicode="u" d="M965 1456 l180 0 l-175 -1024 q-28 -204 -158 -331 q-130 -127 -342 -123 q-204 4 -298 130.5 q-94 126.5 -72 322.5 l174 1025 l179 0 l-173 -1026 q-14 -121 26 -205 q40 -84 175 -88 q142 -5 216.5 77 q74.5 82 93.5 216 l174 1026 Z" /><glyph glyph-name="V" unicode="v" d="M1212 1456 l-667 -1456 l-156 0 l-211 1456 l189 0 l137 -1174 l506 1174 l202 0 Z" /><glyph glyph-name="W" unicode="w" d="M1598 1456 l-509 -1456 l-162 0 l-69 1069 l0 74 l-28 -85 l-411 -1058 l-161 0 l-54 1456 l175 0 l21 -1005 l-7 -147 l51 142 l383 1010 l148 0 l61 -1023 l5 -139 l49 176 l325 986 l183 0 Z" /><glyph glyph-name="X" unicode="x" d="M412 1456 l180 -557 l353 557 l218 0 l-487 -730 l257 -726 l-201 0 l-182 568 l-361 -568 l-221 0 l498 744 l-253 712 l199 0 Z" /><glyph glyph-name="Y" unicode="y" d="M377 1456 l160 -729 l416 729 l212 0 l-567 -923 l-92 -533 l-180 0 l97 555 l-241 901 l195 0 Z" /><glyph glyph-name="Z" unicode="z" d="M215 1298 l28 158 l837 0 l-26 -150 l-838 -1149 l664 0 l-28 -157 l-867 0 l27 154 l835 1144 l-632 0 Z" /><glyph glyph-name="bracketleft" unicode="[" d="M622 1664 l-24 -152 l-149 0 l-261 -1672 l149 0 l-24 -152 l-322 0 l309 1976 l322 0 Z" /><glyph glyph-name="backslash" unicode="\" d="M423 -125 l-221 1581 l155 0 l222 -1581 l-156 0 Z" /><glyph glyph-name="bracketright" unicode="]" d="M172 1512 l24 152 l324 0 l-309 -1976 l-324 0 l24 152 l151 0 l261 1672 l-151 0 Z" /><glyph glyph-name="asciicircum" unicode="^" d="M85 729 l371 727 l116 0 l117 -727 l-152 0 l-59 478 l-227 -478 l-166 0 Z" /><glyph glyph-name="underscore" unicode="_" d="M678 0 l-27 -152 l-758 0 l27 152 l758 0 Z" /><glyph glyph-name="grave" unicode="`" d="M414 1536 l141 -294 l-142 0 l-205 294 l206 0 Z" /><glyph glyph-name="a" unicode="a" d="M575 0 q-6 30 -5.5 58.5 q0.5 28.5 4.5 58.5 q-48 -57 -109 -97.5 q-61 -40.5 -139 -40.5 q-137 1 -206.5 89 q-69.5 88 -61.5 219 q12 189 151.5 279.5 q139.5 90.5 313.5 90.5 l128 0 l17 116 q8 78 -21 128 q-29 50 -114 50 q-79 1 -131 -46.5 q-52 -47.5 -67 -121.5 l-171 -1 q14 145 130 234.5 q116 89.5 257 86.5 q153 -2 228.5 -92.5 q75.5 -90.5 60.5 -240.5 l-88 -534 q-9 -57 -7 -110 q2 -53 5 -109 l-2 -17 l-173 0 ZM362 139 q69 -1 126 35.5 q57 36.5 97 91.5 l45 260 l-79 1 q-107 0 -203.5 -49 q-96.5 -49 -110.5 -169 q-9 -73 17.5 -121.5 q26.5 -48.5 107.5 -48.5 Z" /><glyph glyph-name="b" unicode="b" d="M873 489 q-15 -120 -58.5 -239 q-43.5 -119 -130 -196.5 q-86.5 -77.5 -229.5 -72.5 q-165 5 -234 148 l-37 -129 l-159 0 l266 1536 l173 0 l-108 -572 q48 65 111 102 q63 37 146 36 q139 -3 200.5 -85.5 q61.5 -82.5 72.5 -200.5 q11 -118 0 -226 l-13 -101 ZM558 948 q-76 1 -130 -43.5 q-54 -44.5 -92 -104.5 l-89 -518 q21 -62 62.5 -102 q41.5 -40 110.5 -43 q101 -5 158.5 49 q57.5 54 84.5 137 q27 83 38 166 l12 102 q7 68 7.5 151 q0.5 83 -33 143.5 q-33.5 60.5 -129.5 62.5 Z" /><glyph glyph-name="c" unicode="c" d="M414 129 q98 -3 151.5 61 q53.5 64 73.5 151 l162 1 q-22 -152 -129.5 -259 q-107.5 -107 -267.5 -104 q-144 3 -220 76.5 q-76 73.5 -99 187 q-23 113.5 -9 237.5 l16 122 q17 132 71 248 q54 116 151.5 186.5 q97.5 70.5 246.5 65.5 q170 -5 241.5 -122 q71.5 -117 65.5 -271 l-162 1 q3 84 -25.5 160.5 q-28.5 76.5 -129.5 80.5 q-102 4 -160.5 -48.5 q-58.5 -52.5 -86.5 -134.5 q-28 -82 -39 -166 l-16 -123 q-8 -72 -6.5 -152.5 q1.5 -80.5 38.5 -137.5 q37 -57 133 -60 Z" /><glyph glyph-name="d" unicode="d" d="M591 0 l20 117 q-49 -64 -112 -101.5 q-63 -37.5 -147 -35.5 q-134 3 -196.5 86.5 q-62.5 83.5 -76.5 201 q-14 117.5 -3 221.5 l12 101 q16 121 61 240.5 q45 119.5 133.5 197 q88.5 77.5 232.5 73.5 q150 -5 222 -126 l104 561 l172 0 l-266 -1536 l-156 0 ZM249 488 q-8 -68 -6.5 -149.5 q1.5 -81.5 36.5 -141 q35 -59.5 128 -61.5 q73 -1 124.5 38 q51.5 39 90.5 95 l93 546 q-22 57 -62 93 q-40 36 -104 39 q-102 5 -161.5 -49.5 q-59.5 -54.5 -88 -139 q-28.5 -84.5 -38.5 -168.5 l-12 -102 Z" /><glyph glyph-name="e" unicode="e" d="M769 140 q-64 -83 -158 -122.5 q-94 -39.5 -197 -37.5 q-141 2 -219.5 71 q-78.5 69 -105.5 178.5 q-27 109.5 -14 233.5 l15 122 q16 128 69.5 248.5 q53.5 120.5 150.5 197 q97 76.5 244 71.5 q145 -4 212.5 -81.5 q67.5 -77.5 82.5 -193.5 q15 -116 0 -235 l-15 -103 l-579 1 l-4 -29 q-12 -73 -4.5 -148.5 q7.5 -75.5 49 -127.5 q41.5 -52 134.5 -54 q78 -2 140.5 32 q62.5 34 114.5 90 l84 -113 ZM542 951 q-90 5 -144 -42.5 q-54 -47.5 -83.5 -121 q-29.5 -73.5 -46.5 -147.5 l414 -1 l4 27 q12 91 -9 185 q-21 94 -135 100 Z" /><glyph glyph-name="f" unicode="f" d="M615 940 l-179 0 l-163 -940 l-173 0 l163 940 l-137 0 l25 142 l137 0 l15 114 q20 149 105 257 q85 108 249 106 q29 -1 56.5 -6 q27.5 -5 55.5 -12 l-24 -150 q-45 11 -80 12 q-89 0 -132 -64.5 q-43 -64.5 -55 -142.5 l-18 -114 l179 0 l-24 -142 Z" /><glyph glyph-name="g" unicode="g" d="M751 -9 q-25 -181 -134.5 -303 q-109.5 -122 -304.5 -116 q-85 2 -168.5 39 q-83.5 37 -139.5 99 l81 124 q93 -107 221 -110 q123 -4 188 70 q65 74 85 187 l26 127 q-49 -60 -110.5 -95 q-61.5 -35 -140.5 -33 q-135 2 -197.5 85.5 q-62.5 83.5 -76.5 201 q-14 117.5 -2 222.5 l12 101 q16 121 60.5 241 q44.5 120 132.5 198 q88 78 232 73 q160 -5 229 -141 l36 121 l156 0 l-185 -1091 ZM251 488 q-8 -68 -7 -149.5 q1 -81.5 36 -141 q35 -59.5 129 -61.5 q73 -2 124.5 38 q51.5 40 90.5 97 l93 543 q-22 57 -62.5 93.5 q-40.5 36.5 -104.5 39.5 q-102 5 -161 -50 q-59 -55 -87.5 -139 q-28.5 -84 -38.5 -168 l-12 -102 Z" /><glyph glyph-name="h" unicode="h" d="M555 948 q-76 1 -130 -50 q-54 -51 -92 -109 l-136 -789 l-173 0 l267 1536 l173 0 l-106 -564 q52 58 117 94 q65 36 145 35 q109 -1 160.5 -62.5 q51.5 -61.5 64 -151.5 q12.5 -90 3.5 -178 l-118 -709 l-173 0 l119 712 q8 76 -7 155 q-15 79 -114 81 Z" /><glyph glyph-name="i" unicode="i" d="M266 1367 q2 44 28 76.5 q26 32.5 71 33.5 q47 1 73 -31 q26 -32 24 -76 q-2 -42 -29 -73.5 q-27 -31.5 -71 -32.5 q-46 -1 -71.5 29.5 q-25.5 30.5 -24.5 73.5 ZM398 1082 l-188 -1082 l-172 0 l188 1082 l172 0 Z" /><glyph glyph-name="j" unicode="j" d="M250 1367 q2 44 28 76.5 q26 32.5 72 33.5 q46 2 72 -30 q26 -32 24 -77 q-1 -43 -28 -74 q-27 -31 -72 -32 q-45 -1 -71 29.5 q-26 30.5 -25 73.5 ZM216 1082 l172 0 l-205 -1210 q-15 -120 -74 -217 q-59 -97 -198 -95 q-27 0 -53.5 5.5 q-26.5 5.5 -52.5 13.5 l16 149 q17 -4 34 -7.5 q17 -3.5 35 -3.5 q64 -1 87.5 50.5 q23.5 51.5 32.5 103.5 l206 1211 Z" /><glyph glyph-name="k" unicode="k" d="M579 0 l-197 495 l-118 -115 l-66 -380 l-173 0 l267 1536 l173 0 l-158 -906 l85 96 l312 356 l222 0 l-422 -461 l264 -621 l-189 0 Z" /><glyph glyph-name="l" unicode="l" d="M477 1536 l-267 -1536 l-172 0 l267 1536 l172 0 Z" /><glyph glyph-name="m" unicode="m" d="M541 947 q-70 1 -119 -37 q-49 -38 -84 -95 l-141 -815 l-172 0 l188 1082 l160 1 l-19 -99 q54 56 120 87.5 q66 31.5 145 29.5 q79 -1 138.5 -40 q59.5 -39 83.5 -115 q57 70 129.5 114 q72.5 44 165.5 43 q111 -2 167 -61 q56 -59 72 -148.5 q16 -89.5 6 -182.5 l-119 -711 l-172 0 l118 714 q9 84 -12 158.5 q-21 74.5 -124 75.5 q-88 2 -146.5 -69 q-58.5 -71 -71.5 -150 l-1 -7 l-123 -722 l-173 0 l119 713 q9 81 -13.5 156 q-22.5 75 -121.5 78 Z" /><glyph glyph-name="n" unicode="n" d="M555 947 q-75 2 -129.5 -49 q-54.5 -51 -92.5 -109 l-136 -789 l-173 0 l188 1082 l162 1 l-23 -116 q53 60 119.5 98.5 q66.5 38.5 148.5 36.5 q109 -2 161 -63.5 q52 -61.5 64.5 -151.5 q12.5 -90 3.5 -178 l-118 -709 l-173 0 l119 712 q8 76 -7 154.5 q-15 78.5 -114 80.5 Z" /><glyph glyph-name="o" unicode="o" d="M76 489 l13 102 q17 129 74.5 247.5 q57.5 118.5 158 193.5 q100.5 75 246.5 70 q139 -3 216 -81 q77 -78 103.5 -193.5 q26.5 -115.5 14.5 -235.5 l-13 -103 q-17 -129 -75 -247 q-58 -118 -158.5 -192.5 q-100.5 -74.5 -245.5 -69.5 q-139 3 -216 80.5 q-77 77.5 -103.5 193.5 q-26.5 116 -14.5 235 ZM262 592 l-13 -105 q-7 -67 -1 -149 q6 -82 44.5 -143 q38.5 -61 127.5 -65 q101 -5 162 50.5 q61 55.5 92 140.5 q31 85 42 168 l13 104 q7 66 1 148.5 q-6 82.5 -44.5 144 q-38.5 61.5 -128.5 65.5 q-95 5 -156.5 -52.5 q-61.5 -57.5 -94.5 -143 q-33 -85.5 -44 -163.5 Z" /><glyph glyph-name="p" unicode="p" d="M453 -21 q-155 5 -231 126 l-97 -521 l-173 0 l260 1498 l156 1 l-19 -119 q49 65 113 102.5 q64 37.5 149 36.5 q139 -3 200.5 -85.5 q61.5 -82.5 73 -200.5 q11.5 -118 -0.5 -227 l-13 -101 q-15 -119 -58.5 -238.5 q-43.5 -119.5 -129.5 -197.5 q-86 -78 -230 -74 ZM549 947 q-69 2 -120 -36 q-51 -38 -89 -91 l-98 -567 q49 -118 166 -123 q102 -4 161.5 51 q59.5 55 89 139.5 q29.5 84.5 40.5 168.5 l12 102 q8 68 6 151 q-2 83 -37.5 143.5 q-35.5 60.5 -130.5 61.5 Z" /><glyph glyph-name="q" unicode="q" d="M934 1082 l-260 -1498 l-173 0 l98 512 q-48 -55 -108 -86.5 q-60 -31.5 -135 -29.5 q-137 2 -200.5 84.5 q-63.5 82.5 -77.5 200 q-14 117.5 -2 224.5 l12 101 q16 123 61 243 q45 120 134 196.5 q89 76.5 235 72.5 q151 -5 225 -127 l32 107 l159 0 ZM248 488 q-7 -68 -5.5 -151 q1.5 -83 37 -144 q35.5 -61 129.5 -63 q68 -1 118.5 34.5 q50.5 35.5 89.5 86.5 l101 580 q-24 52 -63.5 84.5 q-39.5 32.5 -99.5 35.5 q-102 5 -162.5 -50.5 q-60.5 -55.5 -90.5 -141 q-30 -85.5 -41 -169.5 l-13 -102 Z" /><glyph glyph-name="r" unicode="r" d="M548 927 q-78 0 -129.5 -43.5 q-51.5 -43.5 -87.5 -107.5 l-134 -776 l-173 0 l188 1082 l166 1 l-23 -110 q38 54 90 93.5 q52 39.5 124 37.5 q19 0 37.5 -4.5 q18.5 -4.5 36.5 -10.5 l-19 -172 q-45 10 -76 10 Z" /><glyph glyph-name="s" unicode="s" d="M584 285 q11 75 -45.5 116.5 q-56.5 41.5 -113.5 69.5 q-103 52 -187 118.5 q-84 66.5 -76 197.5 q8 145 117 231.5 q109 86.5 249 83.5 q145 -3 227 -94.5 q82 -91.5 76 -234.5 l-171 1 q3 69 -31 121.5 q-34 52.5 -111 53.5 q-72 0 -124 -42 q-52 -42 -62 -114 q-10 -70 40 -105 q50 -35 104 -61 q108 -53 198 -121.5 q90 -68.5 82 -206.5 q-9 -154 -121.5 -238 q-112.5 -84 -259.5 -81 q-151 3 -242.5 98.5 q-91.5 95.5 -85.5 246.5 l174 -1 q-3 -82 35 -136 q38 -54 127 -55 q73 -1 132 37 q59 38 69 115 Z" /><glyph glyph-name="t" unicode="t" d="M415 0 q-27 -11 -56 -15 q-29 -4 -57 -3 q-117 2 -148.5 97 q-31.5 95 -22.5 190 l110 671 l-160 0 l25 142 l159 0 l46 263 l173 0 l-46 -263 l159 0 l-25 -142 l-158 0 l-114 -674 q-4 -38 2 -81 q6 -43 57 -43 q18 -1 36 2.5 q18 3.5 35 7.5 l-15 -152 Z" /><glyph glyph-name="u" unicode="u" d="M566 0 l20 95 q-106 -119 -260 -115 q-111 2 -163.5 65.5 q-52.5 63.5 -65.5 156.5 q-13 93 -4 182 l117 698 l172 0 l-117 -701 q-4 -42 -3 -98.5 q1 -56.5 23 -99.5 q22 -43 82 -46 q80 -4 139 37 q59 41 99 107 l138 801 l173 0 l-187 -1082 l-163 0 Z" /><glyph glyph-name="v" unicode="v" d="M880 1082 l-481 -1082 l-130 0 l-146 1082 l170 0 l79 -808 l326 808 l182 0 Z" /><glyph glyph-name="w" unicode="w" d="M1327 1082 l-444 -1082 l-138 0 l-70 772 l-333 -772 l-139 0 l-69 1082 l166 0 l32 -747 l324 747 l138 0 l64 -771 l294 771 l175 0 Z" /><glyph glyph-name="x" unicode="x" d="M327 1082 l114 -392 l241 392 l209 0 l-374 -543 l203 -539 l-189 0 l-121 405 l-249 -405 l-209 0 l385 557 l-198 525 l188 0 Z" /><glyph glyph-name="y" unicode="y" d="M316 -168 q-41 -96 -114.5 -185.5 q-73.5 -89.5 -191.5 -86.5 q-25 0 -49 5.5 q-24 5.5 -48 12.5 l17 150 q25 -5 36 -6 q91 -4 142 49.5 q51 53.5 83 129.5 l53 120 l-123 1061 l182 0 l58 -784 l326 784 l190 0 l-561 -1250 Z" /><glyph glyph-name="z" unicode="z" d="M151 929 l28 153 l680 0 l-25 -141 l-616 -789 l499 0 l-27 -152 l-702 0 l25 146 l610 783 l-472 0 Z" /><glyph glyph-name="braceleft" unicode="{" d="M189 306 q9 83 -9.5 154.5 q-18.5 71.5 -115.5 80.5 l16 145 q103 5 150 75 q47 70 60 164 l28 207 q23 171 109.5 291 q86.5 120 254.5 176 l24 -116 q-108 -46 -153.5 -144 q-45.5 -98 -61.5 -207 l-28 -207 q-14 -102 -60 -181 q-46 -79 -135 -133 q66 -57 83.5 -140 q17.5 -83 8.5 -166 l-27 -207 q-12 -93 -3 -196.5 q9 -103.5 106 -152.5 l-44 -113 q-148 59 -198 186.5 q-50 127.5 -33 276.5 l28 207 Z" /><glyph glyph-name="bar" unicode="|" d="M450 1456 l-270 -1726 l-146 0 l270 1726 l146 0 Z" /><glyph glyph-name="braceright" unicode="}" d="M423 924 q-10 -83 9 -154.5 q19 -71.5 116 -79.5 l-16 -145 q-104 -5 -151 -75.5 q-47 -70.5 -60 -164.5 l-28 -206 q-23 -171 -109 -291 q-86 -120 -254 -176 l-25 117 q109 45 154.5 143 q45.5 98 61.5 207 l28 206 q14 106 62.5 185 q48.5 79 144.5 130 q-73 52 -93 136 q-20 84 -12 169 l28 208 q12 93 2.5 197 q-9.5 104 -105.5 153 l43 112 q148 -59 198.5 -186 q50.5 -127 33.5 -277 l-28 -208 Z" /><glyph glyph-name="asciitilde" unicode="~" d="M936 777 l134 3 q-8 -83 -42 -171.5 q-34 -88.5 -98.5 -148.5 q-64.5 -60 -163.5 -58 q-74 1 -131 42.5 q-57 41.5 -101 96.5 q-26 32 -56.5 65.5 q-30.5 33.5 -76.5 34.5 q-81 2 -112.5 -68.5 q-31.5 -70.5 -41.5 -133.5 l-147 -3 q8 84 43.5 170 q35.5 86 101 143 q65.5 57 164.5 55 q73 -2 130.5 -44 q57.5 -42 100.5 -96 q26 -33 56 -66 q30 -33 77 -34 q83 -2 118 73 q35 75 45 140 Z" /><glyph glyph-name="cent" unicode="¢" d="M807 342 q-20 -135 -110 -228.5 q-90 -93.5 -222 -124.5 l-46 -234 l-173 0 l47 239 q-106 37 -155 124.5 q-49 87.5 -59 195 q-10 107.5 0 203.5 l5 43 q22 178 112.5 332 q90.5 154 276.5 199 l45 227 l173 0 l-45 -226 q127 -38 175 -150 q48 -112 44 -233 l-162 1 q1 79 -29.5 158 q-30.5 79 -126.5 83 q-102 4 -162 -61 q-60 -65 -90 -157.5 q-30 -92.5 -40 -172.5 l-5 -42 q-7 -66 -6.5 -156.5 q0.5 -90.5 36 -159.5 q35.5 -69 131.5 -72 q91 -2 147.5 64.5 q56.5 66.5 76.5 146.5 l162 1 Z" /><glyph glyph-name="sterling" unicode="£" d="M-2 0 l15 156 l60 -2 q64 29 87.5 106.5 q23.5 77.5 33.5 140.5 l31 222 l-128 0 l27 157 l124 0 l34 259 q21 173 133 308 q112 135 301 129 q167 -4 236 -121.5 q69 -117.5 60 -268.5 l-180 1 q6 79 -21 154.5 q-27 75.5 -123 79.5 q-73 2 -120 -44 q-47 -46 -73 -112 q-26 -66 -34 -125 l-34 -260 l252 0 l-27 -157 l-248 0 l-31 -221 q-10 -68 -33.5 -130.5 q-23.5 -62.5 -65.5 -116.5 l600 2 l-29 -157 l-847 0 Z" /><glyph glyph-name="yen" unicode="¥" d="M753 322 l-254 0 l-56 -322 l-180 0 l56 322 l-248 0 l23 124 l246 0 l30 166 l-248 0 l22 125 l209 0 l-171 719 l193 0 l123 -623 l341 623 l207 0 l-419 -719 l198 0 l-22 -126 l-245 5 l-5 -7 l-34 -164 l256 1 l-22 -124 Z" /><glyph glyph-name="dieresis" unicode="¨" d="M218 1369 q1 46 30.5 77.5 q29.5 31.5 76.5 32.5 q47 1 77 -29 q30 -30 30 -77 q-1 -46 -31.5 -76 q-30.5 -30 -76.5 -31 q-45 -1 -75.5 28 q-30.5 29 -30.5 75 ZM636 1367 q0 46 29.5 77.5 q29.5 31.5 76.5 32.5 q47 1 77.5 -29 q30.5 -30 29.5 -77 q0 -46 -30.5 -76 q-30.5 -30 -76.5 -31 q-46 -1 -76 27.5 q-30 28.5 -30 75.5 Z" /><glyph glyph-name="copyright" unicode="©" d="M109 722 q23 199 132.5 372 q109.5 173 281.5 279.5 q172 106.5 380 102.5 q198 -3 336 -110.5 q138 -107.5 203 -276 q65 -168.5 44 -354.5 q-22 -197 -132 -371.5 q-110 -174.5 -281.5 -281.5 q-171.5 -107 -379.5 -103 q-199 3 -337 111.5 q-138 108.5 -202.5 277.5 q-64.5 169 -44.5 354 ZM222 722 q-20 -154 29.5 -296 q49.5 -142 161.5 -233.5 q112 -91.5 279 -94.5 q176 -4 322.5 86.5 q146.5 90.5 241 237.5 q94.5 147 116.5 314 q20 153 -29.5 294.5 q-49.5 141.5 -161 232.5 q-111.5 91 -277.5 94 q-176 4 -322.5 -85.5 q-146.5 -89.5 -242 -236 q-95.5 -146.5 -117.5 -313.5 ZM943 597 l140 1 q-14 -149 -106 -234 q-92 -85 -244 -80 q-161 4 -232 122 q-71 118 -59 265 l12 115 q18 156 115.5 273.5 q97.5 117.5 266.5 114.5 q145 -3 222 -87.5 q77 -84.5 70 -227.5 l-142 1 q5 85 -29.5 135 q-34.5 50 -125.5 51 q-110 2 -166 -80 q-56 -82 -69 -179 l-13 -117 q-8 -85 20.5 -170 q28.5 -85 133.5 -88 q94 -4 142.5 47 q48.5 51 63.5 138 Z" /><glyph glyph-name="guillemotleft" unicode="«" d="M268 149 l-183 389 l2 20 l303 388 l138 0 l-281 -408 l132 -388 l-111 -1 ZM544 149 l-183 389 l2 20 l303 388 l138 0 l-281 -408 l132 -388 l-111 -1 Z" /><glyph glyph-name="registered" unicode="®" d="M109 722 q22 199 132 372 q110 173 281.5 279.5 q171.5 106.5 379.5 102.5 q199 -3 336.5 -110.5 q137.5 -107.5 202.5 -276 q65 -168.5 44 -354.5 q-22 -197 -132 -371.5 q-110 -174.5 -281.5 -281.5 q-171.5 -107 -378.5 -103 q-200 3 -338 111.5 q-138 108.5 -202.5 277.5 q-64.5 169 -43.5 354 ZM222 722 q-21 -154 28.5 -296 q49.5 -142 161.5 -233.5 q112 -91.5 279 -94.5 q176 -4 322.5 86.5 q146.5 90.5 241 237.5 q94.5 147 116.5 314 q20 153 -29.5 294.5 q-49.5 141.5 -161 232.5 q-111.5 91 -277.5 94 q-176 4 -322.5 -85.5 q-146.5 -89.5 -242 -236 q-95.5 -146.5 -116.5 -313.5 ZM811 654 l-168 1 l-53 -338 l-138 0 l133 848 l258 -1 q115 -3 202 -60 q87 -57 79 -187 q-5 -73 -48.5 -120 q-43.5 -47 -104.5 -80 q57 -31 73 -86 q16 -55 11 -115 l-6 -56 q-3 -33 -2 -63.5 q1 -30.5 3 -63.5 l-2 -17 l-138 0 q-5 37 -2.5 73 q2.5 36 6.5 72 l6 53 q7 66 -17 101 q-24 35 -92 39 ZM703 1038 l-40 -255 l143 -1 q59 2 115.5 32 q56.5 30 66.5 96 q13 78 -32 102 q-45 24 -112 25 l-141 1 Z" /><glyph glyph-name="acute" unicode="´" d="M213 1242 l235 294 l230 0 l-306 -294 l-159 0 Z" /><glyph glyph-name="cedilla" unicode="¸" d="M34 0 l122 0 l-19 -55 q56 -17 77 -63 q21 -46 19 -101 q-5 -120 -92 -167 q-87 -47 -191 -51 l5 108 q52 4 94.5 27 q42.5 23 50.5 80 q8 55 -29 68 q-37 13 -80 19 l43 135 Z" /><glyph glyph-name="guillemotright" unicode="»" d="M278 950 l182 -389 l-2 -20 l-302 -388 l-140 0 l281 408 l-132 388 l113 1 ZM572 950 l182 -389 l-2 -20 l-302 -388 l-140 0 l281 408 l-132 388 l113 1 Z" /><glyph glyph-name="circumflex" unicode="&#x2c6;" d="M618 1536 l169 -271 l0 -14 l-139 2 l-84 168 l-147 -167 l-140 -3 l0 15 l241 270 l100 0 Z" /><glyph glyph-name="ring" unicode="&#x2da;" d="M258 1401 q2 89 66.5 153 q64.5 64 153.5 64 q84 0 141 -59 q57 -59 56 -142 q-2 -90 -66.5 -151.5 q-64.5 -61.5 -153.5 -61.5 q-84 0 -141 56.5 q-57 56.5 -56 140.5 ZM354 1403 q-4 -43 22 -76 q26 -33 71 -33 q49 0 87.5 36.5 q38.5 36.5 43.5 84.5 q6 44 -20 78 q-26 34 -72 34 q-50 0 -88 -38 q-38 -38 -44 -86 Z" /><glyph glyph-name="tilde" unicode="&#x2dc;" d="M741 1511 l107 -9 q-8 -84 -53.5 -166 q-45.5 -82 -145.5 -80 q-66 1 -108 50.5 q-42 49.5 -104 47.5 q-45 -2 -66.5 -38.5 q-21.5 -36.5 -31.5 -72.5 l-112 6 q9 82 55.5 166.5 q46.5 84.5 146.5 81.5 q64 -1 107.5 -51 q43.5 -50 105.5 -47 q45 2 67 39 q22 37 32 73 Z" /><glyph glyph-name="endash" unicode="&#x2013;" d="M1017 803 l-32 -152 l-820 0 l32 152 l820 0 Z" /><glyph glyph-name="emdash" unicode="&#x2014;" d="M1302 803 l-43 -152 l-1093 0 l43 152 l1093 0 Z" /><glyph glyph-name="quoteleft" unicode="&#x2018;" d="M179 1073 l18 119 q34 218 209 364 l93 -75 q-46 -66 -79.5 -135.5 q-33.5 -69.5 -48.5 -148.5 l-22 -124 l-170 0 Z" /><glyph glyph-name="quoteright" unicode="&#x2019;" d="M467 1536 l-21 -127 q-35 -218 -208 -363 l-93 75 q47 65 80 135 q33 70 48 149 l23 131 l171 0 Z" /><glyph glyph-name="quotesinglbase" unicode="&#x201a;" d="M226 182 l-17 -102 q-35 -218 -208 -363 l-93 74 q46 66 78.5 136 q32.5 70 47.5 149 l19 106 l173 0 Z" /><glyph glyph-name="quotedblleft" unicode="&#x201c;" d="M188 1073 l18 119 q34 218 209 364 l93 -75 q-46 -66 -79.5 -135.5 q-33.5 -69.5 -48.5 -148.5 l-22 -124 l-170 0 ZM464 1073 l18 119 q34 218 209 364 l93 -75 q-46 -66 -79.5 -135.5 q-33.5 -69.5 -48.5 -148.5 l-22 -124 l-170 0 Z" /><glyph glyph-name="quotedblright" unicode="&#x201d;" d="M479 1536 l-21 -127 q-35 -218 -208 -363 l-93 75 q47 65 80 135 q33 70 48 149 l23 131 l171 0 ZM748 1536 l-21 -127 q-35 -218 -208 -363 l-93 75 q47 65 80 135 q33 70 48 149 l23 131 l171 0 Z" /><glyph glyph-name="quotedblbase" unicode="&#x201e;" d="M236 246 l-27 -166 q-37 -230 -211 -382 l-93 75 q47 70 80.5 145 q33.5 75 48.5 158 l30 170 l172 0 ZM496 246 l-27 -166 q-37 -231 -210 -382 l-94 75 q48 70 81.5 144.5 q33.5 74.5 48.5 158.5 l30 170 l171 0 Z" /><glyph glyph-name="ellipsis" unicode="&#x2026;" d="M51 95 q0 49 31.5 82 q31.5 33 80.5 34 q49 1 80.5 -30 q31.5 -31 30.5 -80 q0 -49 -31.5 -81 q-31.5 -32 -80.5 -33 q-48 -1 -80 29 q-32 30 -31 79 ZM415 95 q0 49 31.5 82 q31.5 33 80.5 34 q49 1 80.5 -30 q31.5 -31 30.5 -80 q0 -49 -31.5 -81 q-31.5 -32 -80.5 -33 q-48 -1 -80 29 q-32 30 -31 79 ZM760 95 q0 49 31.5 82 q31.5 33 80.5 34 q49 1 80.5 -30 q31.5 -31 30.5 -80 q0 -49 -31.5 -81 q-31.5 -32 -80.5 -33 q-48 -1 -80 29 q-32 30 -31 79 Z" /><glyph glyph-name="guilsinglleft" unicode="&#x2039;" d="M281 152 l-183 389 l2 20 l303 388 l138 0 l-281 -408 l132 -388 l-111 -1 Z" /><glyph glyph-name="guilsinglright" unicode="&#x203a;" d="M269 950 l182 -389 l-2 -20 l-302 -388 l-140 0 l281 408 l-132 388 l113 1 Z" /><glyph glyph-name="Euro" unicode="&#x20ac;" d="M785 8 q-102 -28 -196 -26 q-153 3 -235.5 89 q-82.5 86 -108 214.5 q-25.5 128.5 -7.5 257.5 l-148 -1 l22 124 l140 0 l24 136 l-141 0 l22 125 l134 0 q30 139 92 266 q62 127 168 207 q106 80 268 78 q52 -1 103.5 -10.5 q51.5 -9.5 101.5 -22.5 l-37 -161 q-89 36 -173 38 q-111 2 -179 -59 q-68 -61 -106 -153.5 q-38 -92.5 -58 -182.5 l309 0 l-23 -125 l-301 0 l-24 -136 l302 0 l-22 -124 l-296 0 q-10 -74 -6 -167.5 q4 -93.5 44.5 -163.5 q40.5 -70 143.5 -72 q46 -2 91.5 7.5 q45.5 9.5 89.5 24.5 l6 -163 Z" /><glyph glyph-name="trademark" unicode="&#x2122;" d="M875 919 l67 379 l-171 -379 l-43 0 l-44 401 l-71 -401 l-79 0 l93 537 l96 0 l42 -396 l181 396 l103 0 l-94 -537 l-80 0 ZM566 1456 l-15 -81 l-117 0 l-80 -456 l-80 0 l79 456 l-116 0 l14 81 l315 0 Z" /><glyph glyph-name="Agrave" unicode="à" d="M-66 0 l707 1456 l155 0 l202 -1456 l-176 0 l-45 381 l-476 0 l-177 -381 l-190 0 ZM374 539 l384 0 l-77 659 l-307 -659 ZM698 1847 l141 -294 l-142 0 l-205 294 l206 0 Z" /><glyph glyph-name="Aacute" unicode="á" d="M-66 0 l707 1456 l155 0 l202 -1456 l-176 0 l-45 381 l-476 0 l-177 -381 l-190 0 ZM374 539 l384 0 l-77 659 l-307 -659 ZM636 1553 l235 294 l230 0 l-306 -294 l-159 0 Z" /><glyph glyph-name="Acircumflex" unicode="â" d="M-66 0 l707 1456 l155 0 l202 -1456 l-176 0 l-45 381 l-476 0 l-177 -381 l-190 0 ZM374 539 l384 0 l-77 659 l-307 -659 ZM834 1847 l169 -271 l0 -14 l-139 2 l-84 168 l-147 -167 l-140 -3 l0 15 l241 270 l100 0 Z" /><glyph glyph-name="Adieresis" unicode="ä" d="M-66 0 l707 1456 l155 0 l202 -1456 l-176 0 l-45 381 l-476 0 l-177 -381 l-190 0 ZM374 539 l384 0 l-77 659 l-307 -659 ZM449 1680 q1 46 30.5 77.5 q29.5 31.5 76.5 32.5 q47 1 77 -29 q30 -30 30 -77 q-1 -46 -31.5 -76 q-30.5 -30 -76.5 -31 q-45 -1 -75.5 28 q-30.5 29 -30.5 75 ZM867 1678 q0 46 29.5 77.5 q29.5 31.5 76.5 32.5 q47 1 77.5 -29 q30.5 -30 29.5 -77 q0 -46 -30.5 -76 q-30.5 -30 -76.5 -31 q-46 -1 -76 27.5 q-30 28.5 -30 75.5 Z" /><glyph glyph-name="Egrave" unicode="è" d="M48 0 l252 1456 l752 0 l-28 -158 l-571 0 l-82 -468 l499 0 l-27 -157 l-498 0 l-90 -516 l581 0 l-28 -157 l-760 0 ZM647 1858 l141 -294 l-142 0 l-205 294 l206 0 Z" /><glyph glyph-name="Eacute" unicode="é" d="M48 0 l252 1456 l752 0 l-28 -158 l-571 0 l-82 -468 l499 0 l-27 -157 l-498 0 l-90 -516 l581 0 l-28 -157 l-760 0 ZM586 1564 l235 294 l230 0 l-306 -294 l-159 0 Z" /><glyph glyph-name="Ecircumflex" unicode="ê" d="M48 0 l252 1456 l752 0 l-28 -158 l-571 0 l-82 -468 l499 0 l-27 -157 l-498 0 l-90 -516 l581 0 l-28 -157 l-760 0 ZM783 1858 l169 -271 l0 -14 l-139 2 l-84 168 l-147 -167 l-140 -3 l0 15 l241 270 l100 0 Z" /><glyph glyph-name="Edieresis" unicode="ë" d="M48 0 l252 1456 l752 0 l-28 -158 l-571 0 l-82 -468 l499 0 l-27 -157 l-498 0 l-90 -516 l581 0 l-28 -157 l-760 0 ZM399 1691 q1 46 30.5 77.5 q29.5 31.5 76.5 32.5 q47 1 77 -29 q30 -30 30 -77 q-1 -46 -31.5 -76 q-30.5 -30 -76.5 -31 q-45 -1 -75.5 28 q-30.5 29 -30.5 75 ZM817 1689 q0 46 29.5 77.5 q29.5 31.5 76.5 32.5 q47 1 77.5 -29 q30.5 -30 29.5 -77 q0 -46 -30.5 -76 q-30.5 -30 -76.5 -31 q-46 -1 -76 27.5 q-30 28.5 -30 75.5 Z" /><glyph glyph-name="Igrave" unicode="ì" d="M488 1456 l-253 -1456 l-180 0 l253 1456 l180 0 ZM372 1858 l141 -294 l-142 0 l-205 294 l206 0 Z" /><glyph glyph-name="Iacute" unicode="í" d="M488 1456 l-253 -1456 l-180 0 l253 1456 l180 0 ZM310 1564 l235 294 l230 0 l-306 -294 l-159 0 Z" /><glyph glyph-name="Icircumflex" unicode="î" d="M488 1456 l-253 -1456 l-180 0 l253 1456 l180 0 ZM508 1858 l169 -271 l0 -14 l-139 2 l-84 168 l-147 -167 l-140 -3 l0 15 l241 270 l100 0 Z" /><glyph glyph-name="Idieresis" unicode="ï" d="M488 1456 l-253 -1456 l-180 0 l253 1456 l180 0 ZM123 1691 q1 46 30.5 77.5 q29.5 31.5 76.5 32.5 q47 1 77 -29 q30 -30 30 -77 q-1 -46 -31.5 -76 q-30.5 -30 -76.5 -31 q-45 -1 -75.5 28 q-30.5 29 -30.5 75 ZM541 1689 q0 46 29.5 77.5 q29.5 31.5 76.5 32.5 q47 1 77.5 -29 q30.5 -30 29.5 -77 q0 -46 -30.5 -76 q-30.5 -30 -76.5 -31 q-46 -1 -76 27.5 q-30 28.5 -30 75.5 Z" /><glyph glyph-name="Ograve" unicode="ò" d="M1113 854 l-39 -252 q-24 -157 -89 -301 q-65 -144 -181.5 -235 q-116.5 -91 -297.5 -86 q-170 4 -259 99.5 q-89 95.5 -114.5 237 q-25.5 141.5 -7.5 284.5 l39 253 q23 154 89 299 q66 145 183.5 236.5 q117.5 91.5 296.5 86.5 q172 -4 260.5 -99 q88.5 -95 113.5 -237 q25 -142 6 -286 ZM897 601 l39 257 q12 91 8 195.5 q-4 104.5 -52.5 180 q-48.5 75.5 -169.5 79.5 q-128 5 -206 -65.5 q-78 -70.5 -118.5 -178 q-40.5 -107.5 -56.5 -213.5 l-38 -256 q-11 -89 -6.5 -194 q4.5 -105 52.5 -182 q48 -77 167 -82 q130 -5 208 65.5 q78 70.5 117.5 178 q39.5 107.5 55.5 215.5 ZM721 1849 l141 -294 l-142 0 l-205 294 l206 0 Z" /><glyph glyph-name="Oacute" unicode="ó" d="M1113 854 l-39 -252 q-24 -157 -89 -301 q-65 -144 -181.5 -235 q-116.5 -91 -297.5 -86 q-170 4 -259 99.5 q-89 95.5 -114.5 237 q-25.5 141.5 -7.5 284.5 l39 253 q23 154 89 299 q66 145 183.5 236.5 q117.5 91.5 296.5 86.5 q172 -4 260.5 -99 q88.5 -95 113.5 -237 q25 -142 6 -286 ZM897 601 l39 257 q12 91 8 195.5 q-4 104.5 -52.5 180 q-48.5 75.5 -169.5 79.5 q-128 5 -206 -65.5 q-78 -70.5 -118.5 -178 q-40.5 -107.5 -56.5 -213.5 l-38 -256 q-11 -89 -6.5 -194 q4.5 -105 52.5 -182 q48 -77 167 -82 q130 -5 208 65.5 q78 70.5 117.5 178 q39.5 107.5 55.5 215.5 ZM660 1555 l235 294 l230 0 l-306 -294 l-159 0 Z" /><glyph glyph-name="Ocircumflex" unicode="ô" d="M1113 854 l-39 -252 q-24 -157 -89 -301 q-65 -144 -181.5 -235 q-116.5 -91 -297.5 -86 q-170 4 -259 99.5 q-89 95.5 -114.5 237 q-25.5 141.5 -7.5 284.5 l39 253 q23 154 89 299 q66 145 183.5 236.5 q117.5 91.5 296.5 86.5 q172 -4 260.5 -99 q88.5 -95 113.5 -237 q25 -142 6 -286 ZM897 601 l39 257 q12 91 8 195.5 q-4 104.5 -52.5 180 q-48.5 75.5 -169.5 79.5 q-128 5 -206 -65.5 q-78 -70.5 -118.5 -178 q-40.5 -107.5 -56.5 -213.5 l-38 -256 q-11 -89 -6.5 -194 q4.5 -105 52.5 -182 q48 -77 167 -82 q130 -5 208 65.5 q78 70.5 117.5 178 q39.5 107.5 55.5 215.5 ZM857 1849 l169 -271 l0 -14 l-139 2 l-84 168 l-147 -167 l-140 -3 l0 15 l241 270 l100 0 Z" /><glyph glyph-name="Odieresis" unicode="ö" d="M1113 854 l-39 -252 q-24 -157 -89 -301 q-65 -144 -181.5 -235 q-116.5 -91 -297.5 -86 q-170 4 -259 99.5 q-89 95.5 -114.5 237 q-25.5 141.5 -7.5 284.5 l39 253 q23 154 89 299 q66 145 183.5 236.5 q117.5 91.5 296.5 86.5 q172 -4 260.5 -99 q88.5 -95 113.5 -237 q25 -142 6 -286 ZM897 601 l39 257 q12 91 8 195.5 q-4 104.5 -52.5 180 q-48.5 75.5 -169.5 79.5 q-128 5 -206 -65.5 q-78 -70.5 -118.5 -178 q-40.5 -107.5 -56.5 -213.5 l-38 -256 q-11 -89 -6.5 -194 q4.5 -105 52.5 -182 q48 -77 167 -82 q130 -5 208 65.5 q78 70.5 117.5 178 q39.5 107.5 55.5 215.5 ZM473 1682 q1 46 30.5 77.5 q29.5 31.5 76.5 32.5 q47 1 77 -29 q30 -30 30 -77 q-1 -46 -31.5 -76 q-30.5 -30 -76.5 -31 q-45 -1 -75.5 28 q-30.5 29 -30.5 75 ZM891 1680 q0 46 29.5 77.5 q29.5 31.5 76.5 32.5 q47 1 77.5 -29 q30.5 -30 29.5 -77 q0 -46 -30.5 -76 q-30.5 -30 -76.5 -31 q-46 -1 -76 27.5 q-30 28.5 -30 75.5 Z" /><glyph glyph-name="Ugrave" unicode="ù" d="M965 1456 l180 0 l-175 -1024 q-28 -204 -158 -331 q-130 -127 -342 -123 q-204 4 -298 130.5 q-94 126.5 -72 322.5 l174 1025 l179 0 l-173 -1026 q-14 -121 26 -205 q40 -84 175 -88 q142 -5 216.5 77 q74.5 82 93.5 216 l174 1026 ZM680 1847 l141 -294 l-142 0 l-205 294 l206 0 Z" /><glyph glyph-name="Uacute" unicode="ú" d="M965 1456 l180 0 l-175 -1024 q-28 -204 -158 -331 q-130 -127 -342 -123 q-204 4 -298 130.5 q-94 126.5 -72 322.5 l174 1025 l179 0 l-173 -1026 q-14 -121 26 -205 q40 -84 175 -88 q142 -5 216.5 77 q74.5 82 93.5 216 l174 1026 ZM619 1553 l235 294 l230 0 l-306 -294 l-159 0 Z" /><glyph glyph-name="Ucircumflex" unicode="û" d="M965 1456 l180 0 l-175 -1024 q-28 -204 -158 -331 q-130 -127 -342 -123 q-204 4 -298 130.5 q-94 126.5 -72 322.5 l174 1025 l179 0 l-173 -1026 q-14 -121 26 -205 q40 -84 175 -88 q142 -5 216.5 77 q74.5 82 93.5 216 l174 1026 ZM816 1847 l169 -271 l0 -14 l-139 2 l-84 168 l-147 -167 l-140 -3 l0 15 l241 270 l100 0 Z" /><glyph glyph-name="Udieresis" unicode="ü" d="M965 1456 l180 0 l-175 -1024 q-28 -204 -158 -331 q-130 -127 -342 -123 q-204 4 -298 130.5 q-94 126.5 -72 322.5 l174 1025 l179 0 l-173 -1026 q-14 -121 26 -205 q40 -84 175 -88 q142 -5 216.5 77 q74.5 82 93.5 216 l174 1026 ZM432 1680 q1 46 30.5 77.5 q29.5 31.5 76.5 32.5 q47 1 77 -29 q30 -30 30 -77 q-1 -46 -31.5 -76 q-30.5 -30 -76.5 -31 q-45 -1 -75.5 28 q-30.5 29 -30.5 75 ZM850 1678 q0 46 29.5 77.5 q29.5 31.5 76.5 32.5 q47 1 77.5 -29 q30.5 -30 29.5 -77 q0 -46 -30.5 -76 q-30.5 -30 -76.5 -31 q-46 -1 -76 27.5 q-30 28.5 -30 75.5 Z" /><glyph glyph-name="Yacute" unicode="ý" d="M377 1456 l160 -729 l416 729 l212 0 l-567 -923 l-92 -533 l-180 0 l97 555 l-241 901 l195 0 ZM585 1552 l235 294 l230 0 l-306 -294 l-159 0 Z" /><glyph glyph-name="agrave" unicode="à" d="M575 0 q-6 30 -5.5 58.5 q0.5 28.5 4.5 58.5 q-48 -57 -109 -97.5 q-61 -40.5 -139 -40.5 q-137 1 -206.5 89 q-69.5 88 -61.5 219 q12 189 151.5 279.5 q139.5 90.5 313.5 90.5 l128 0 l17 116 q8 78 -21 128 q-29 50 -114 50 q-79 1 -131 -46.5 q-52 -47.5 -67 -121.5 l-171 -1 q14 145 130 234.5 q116 89.5 257 86.5 q153 -2 228.5 -92.5 q75.5 -90.5 60.5 -240.5 l-88 -534 q-9 -57 -7 -110 q2 -53 5 -109 l-2 -17 l-173 0 ZM362 139 q69 -1 126 35.5 q57 36.5 97 91.5 l45 260 l-79 1 q-107 0 -203.5 -49 q-96.5 -49 -110.5 -169 q-9 -73 17.5 -121.5 q26.5 -48.5 107.5 -48.5 ZM562 1536 l141 -294 l-142 0 l-205 294 l206 0 Z" /><glyph glyph-name="acircumflex" unicode="â" d="M575 0 q-6 30 -5.5 58.5 q0.5 28.5 4.5 58.5 q-48 -57 -109 -97.5 q-61 -40.5 -139 -40.5 q-137 1 -206.5 89 q-69.5 88 -61.5 219 q12 189 151.5 279.5 q139.5 90.5 313.5 90.5 l128 0 l17 116 q8 78 -21 128 q-29 50 -114 50 q-79 1 -131 -46.5 q-52 -47.5 -67 -121.5 l-171 -1 q14 145 130 234.5 q116 89.5 257 86.5 q153 -2 228.5 -92.5 q75.5 -90.5 60.5 -240.5 l-88 -534 q-9 -57 -7 -110 q2 -53 5 -109 l-2 -17 l-173 0 ZM362 139 q69 -1 126 35.5 q57 36.5 97 91.5 l45 260 l-79 1 q-107 0 -203.5 -49 q-96.5 -49 -110.5 -169 q-9 -73 17.5 -121.5 q26.5 -48.5 107.5 -48.5 ZM698 1536 l169 -271 l0 -14 l-139 2 l-84 168 l-147 -167 l-140 -3 l0 15 l241 270 l100 0 Z" /><glyph glyph-name="adieresis" unicode="ä" d="M575 0 q-6 30 -5.5 58.5 q0.5 28.5 4.5 58.5 q-48 -57 -109 -97.5 q-61 -40.5 -139 -40.5 q-137 1 -206.5 89 q-69.5 88 -61.5 219 q12 189 151.5 279.5 q139.5 90.5 313.5 90.5 l128 0 l17 116 q8 78 -21 128 q-29 50 -114 50 q-79 1 -131 -46.5 q-52 -47.5 -67 -121.5 l-171 -1 q14 145 130 234.5 q116 89.5 257 86.5 q153 -2 228.5 -92.5 q75.5 -90.5 60.5 -240.5 l-88 -534 q-9 -57 -7 -110 q2 -53 5 -109 l-2 -17 l-173 0 ZM362 139 q69 -1 126 35.5 q57 36.5 97 91.5 l45 260 l-79 1 q-107 0 -203.5 -49 q-96.5 -49 -110.5 -169 q-9 -73 17.5 -121.5 q26.5 -48.5 107.5 -48.5 ZM313 1369 q1 46 30.5 77.5 q29.5 31.5 76.5 32.5 q47 1 77 -29 q30 -30 30 -77 q-1 -46 -31.5 -76 q-30.5 -30 -76.5 -31 q-45 -1 -75.5 28 q-30.5 29 -30.5 75 ZM731 1367 q0 46 29.5 77.5 q29.5 31.5 76.5 32.5 q47 1 77.5 -29 q30.5 -30 29.5 -77 q0 -46 -30.5 -76 q-30.5 -30 -76.5 -31 q-46 -1 -76 27.5 q-30 28.5 -30 75.5 Z" /><glyph glyph-name="egrave" unicode="è" d="M769 140 q-64 -83 -158 -122.5 q-94 -39.5 -197 -37.5 q-141 2 -219.5 71 q-78.5 69 -105.5 178.5 q-27 109.5 -14 233.5 l15 122 q16 128 69.5 248.5 q53.5 120.5 150.5 197 q97 76.5 244 71.5 q145 -4 212.5 -81.5 q67.5 -77.5 82.5 -193.5 q15 -116 0 -235 l-15 -103 l-579 1 l-4 -29 q-12 -73 -4.5 -148.5 q7.5 -75.5 49 -127.5 q41.5 -52 134.5 -54 q78 -2 140.5 32 q62.5 34 114.5 90 l84 -113 ZM542 951 q-90 5 -144 -42.5 q-54 -47.5 -83.5 -121 q-29.5 -73.5 -46.5 -147.5 l414 -1 l4 27 q12 91 -9 185 q-21 94 -135 100 ZM535 1536 l141 -294 l-142 0 l-205 294 l206 0 Z" /><glyph glyph-name="eacute" unicode="é" d="M769 140 q-64 -83 -158 -122.5 q-94 -39.5 -197 -37.5 q-141 2 -219.5 71 q-78.5 69 -105.5 178.5 q-27 109.5 -14 233.5 l15 122 q16 128 69.5 248.5 q53.5 120.5 150.5 197 q97 76.5 244 71.5 q145 -4 212.5 -81.5 q67.5 -77.5 82.5 -193.5 q15 -116 0 -235 l-15 -103 l-579 1 l-4 -29 q-12 -73 -4.5 -148.5 q7.5 -75.5 49 -127.5 q41.5 -52 134.5 -54 q78 -2 140.5 32 q62.5 34 114.5 90 l84 -113 ZM542 951 q-90 5 -144 -42.5 q-54 -47.5 -83.5 -121 q-29.5 -73.5 -46.5 -147.5 l414 -1 l4 27 q12 91 -9 185 q-21 94 -135 100 ZM474 1242 l235 294 l230 0 l-306 -294 l-159 0 Z" /><glyph glyph-name="ecircumflex" unicode="ê" d="M769 140 q-64 -83 -158 -122.5 q-94 -39.5 -197 -37.5 q-141 2 -219.5 71 q-78.5 69 -105.5 178.5 q-27 109.5 -14 233.5 l15 122 q16 128 69.5 248.5 q53.5 120.5 150.5 197 q97 76.5 244 71.5 q145 -4 212.5 -81.5 q67.5 -77.5 82.5 -193.5 q15 -116 0 -235 l-15 -103 l-579 1 l-4 -29 q-12 -73 -4.5 -148.5 q7.5 -75.5 49 -127.5 q41.5 -52 134.5 -54 q78 -2 140.5 32 q62.5 34 114.5 90 l84 -113 ZM542 951 q-90 5 -144 -42.5 q-54 -47.5 -83.5 -121 q-29.5 -73.5 -46.5 -147.5 l414 -1 l4 27 q12 91 -9 185 q-21 94 -135 100 ZM671 1536 l169 -271 l0 -14 l-139 2 l-84 168 l-147 -167 l-140 -3 l0 15 l241 270 l100 0 Z" /><glyph glyph-name="edieresis" unicode="ë" d="M769 140 q-64 -83 -158 -122.5 q-94 -39.5 -197 -37.5 q-141 2 -219.5 71 q-78.5 69 -105.5 178.5 q-27 109.5 -14 233.5 l15 122 q16 128 69.5 248.5 q53.5 120.5 150.5 197 q97 76.5 244 71.5 q145 -4 212.5 -81.5 q67.5 -77.5 82.5 -193.5 q15 -116 0 -235 l-15 -103 l-579 1 l-4 -29 q-12 -73 -4.5 -148.5 q7.5 -75.5 49 -127.5 q41.5 -52 134.5 -54 q78 -2 140.5 32 q62.5 34 114.5 90 l84 -113 ZM542 951 q-90 5 -144 -42.5 q-54 -47.5 -83.5 -121 q-29.5 -73.5 -46.5 -147.5 l414 -1 l4 27 q12 91 -9 185 q-21 94 -135 100 ZM287 1369 q1 46 30.5 77.5 q29.5 31.5 76.5 32.5 q47 1 77 -29 q30 -30 30 -77 q-1 -46 -31.5 -76 q-30.5 -30 -76.5 -31 q-45 -1 -75.5 28 q-30.5 29 -30.5 75 ZM705 1367 q0 46 29.5 77.5 q29.5 31.5 76.5 32.5 q47 1 77.5 -29 q30.5 -30 29.5 -77 q0 -46 -30.5 -76 q-30.5 -30 -76.5 -31 q-46 -1 -76 27.5 q-30 28.5 -30 75.5 Z" /><glyph glyph-name="igrave" unicode="ì" d="M399 1082 l-188 -1082 l-173 0 l188 1082 l173 0 ZM299 1534 l141 -294 l-142 0 l-205 294 l206 0 Z" /><glyph glyph-name="iacute" unicode="í" d="M399 1082 l-188 -1082 l-173 0 l188 1082 l173 0 ZM238 1240 l235 294 l230 0 l-306 -294 l-159 0 Z" /><glyph glyph-name="icircumflex" unicode="î" d="M399 1082 l-188 -1082 l-173 0 l188 1082 l173 0 ZM435 1534 l169 -271 l0 -14 l-139 2 l-84 168 l-147 -167 l-140 -3 l0 15 l241 270 l100 0 Z" /><glyph glyph-name="idieresis" unicode="ï" d="M399 1082 l-188 -1082 l-173 0 l188 1082 l173 0 ZM51 1367 q1 46 30.5 77.5 q29.5 31.5 76.5 32.5 q47 1 77 -29 q30 -30 30 -77 q-1 -46 -31.5 -76 q-30.5 -30 -76.5 -31 q-45 -1 -75.5 28 q-30.5 29 -30.5 75 ZM469 1365 q0 46 29.5 77.5 q29.5 31.5 76.5 32.5 q47 1 77.5 -29 q30.5 -30 29.5 -77 q0 -46 -30.5 -76 q-30.5 -30 -76.5 -31 q-46 -1 -76 27.5 q-30 28.5 -30 75.5 Z" /><glyph glyph-name="ograve" unicode="ò" d="M76 489 l13 102 q17 129 74.5 247.5 q57.5 118.5 158 193.5 q100.5 75 246.5 70 q139 -3 216 -81 q77 -78 103.5 -193.5 q26.5 -115.5 14.5 -235.5 l-13 -103 q-17 -129 -75 -247 q-58 -118 -158.5 -192.5 q-100.5 -74.5 -245.5 -69.5 q-139 3 -216 80.5 q-77 77.5 -103.5 193.5 q-26.5 116 -14.5 235 ZM262 592 l-13 -105 q-7 -67 -1 -149 q6 -82 44.5 -143 q38.5 -61 127.5 -65 q101 -5 162 50.5 q61 55.5 92 140.5 q31 85 42 168 l13 104 q7 66 1 148.5 q-6 82.5 -44.5 144 q-38.5 61.5 -128.5 65.5 q-95 5 -156.5 -52.5 q-61.5 -57.5 -94.5 -143 q-33 -85.5 -44 -163.5 ZM545 1536 l141 -294 l-142 0 l-205 294 l206 0 Z" /><glyph glyph-name="oacute" unicode="ó" d="M76 489 l13 102 q17 129 74.5 247.5 q57.5 118.5 158 193.5 q100.5 75 246.5 70 q139 -3 216 -81 q77 -78 103.5 -193.5 q26.5 -115.5 14.5 -235.5 l-13 -103 q-17 -129 -75 -247 q-58 -118 -158.5 -192.5 q-100.5 -74.5 -245.5 -69.5 q-139 3 -216 80.5 q-77 77.5 -103.5 193.5 q-26.5 116 -14.5 235 ZM262 592 l-13 -105 q-7 -67 -1 -149 q6 -82 44.5 -143 q38.5 -61 127.5 -65 q101 -5 162 50.5 q61 55.5 92 140.5 q31 85 42 168 l13 104 q7 66 1 148.5 q-6 82.5 -44.5 144 q-38.5 61.5 -128.5 65.5 q-95 5 -156.5 -52.5 q-61.5 -57.5 -94.5 -143 q-33 -85.5 -44 -163.5 ZM484 1242 l235 294 l230 0 l-306 -294 l-159 0 Z" /><glyph glyph-name="ocircumflex" unicode="ô" d="M76 489 l13 102 q17 129 74.5 247.5 q57.5 118.5 158 193.5 q100.5 75 246.5 70 q139 -3 216 -81 q77 -78 103.5 -193.5 q26.5 -115.5 14.5 -235.5 l-13 -103 q-17 -129 -75 -247 q-58 -118 -158.5 -192.5 q-100.5 -74.5 -245.5 -69.5 q-139 3 -216 80.5 q-77 77.5 -103.5 193.5 q-26.5 116 -14.5 235 ZM262 592 l-13 -105 q-7 -67 -1 -149 q6 -82 44.5 -143 q38.5 -61 127.5 -65 q101 -5 162 50.5 q61 55.5 92 140.5 q31 85 42 168 l13 104 q7 66 1 148.5 q-6 82.5 -44.5 144 q-38.5 61.5 -128.5 65.5 q-95 5 -156.5 -52.5 q-61.5 -57.5 -94.5 -143 q-33 -85.5 -44 -163.5 ZM681 1536 l169 -271 l0 -14 l-139 2 l-84 168 l-147 -167 l-140 -3 l0 15 l241 270 l100 0 Z" /><glyph glyph-name="odieresis" unicode="ö" d="M76 489 l13 102 q17 129 74.5 247.5 q57.5 118.5 158 193.5 q100.5 75 246.5 70 q139 -3 216 -81 q77 -78 103.5 -193.5 q26.5 -115.5 14.5 -235.5 l-13 -103 q-17 -129 -75 -247 q-58 -118 -158.5 -192.5 q-100.5 -74.5 -245.5 -69.5 q-139 3 -216 80.5 q-77 77.5 -103.5 193.5 q-26.5 116 -14.5 235 ZM262 592 l-13 -105 q-7 -67 -1 -149 q6 -82 44.5 -143 q38.5 -61 127.5 -65 q101 -5 162 50.5 q61 55.5 92 140.5 q31 85 42 168 l13 104 q7 66 1 148.5 q-6 82.5 -44.5 144 q-38.5 61.5 -128.5 65.5 q-95 5 -156.5 -52.5 q-61.5 -57.5 -94.5 -143 q-33 -85.5 -44 -163.5 ZM297 1369 q1 46 30.5 77.5 q29.5 31.5 76.5 32.5 q47 1 77 -29 q30 -30 30 -77 q-1 -46 -31.5 -76 q-30.5 -30 -76.5 -31 q-45 -1 -75.5 28 q-30.5 29 -30.5 75 ZM715 1367 q0 46 29.5 77.5 q29.5 31.5 76.5 32.5 q47 1 77.5 -29 q30.5 -30 29.5 -77 q0 -46 -30.5 -76 q-30.5 -30 -76.5 -31 q-46 -1 -76 27.5 q-30 28.5 -30 75.5 Z" /><glyph glyph-name="ugrave" unicode="ù" d="M566 0 l20 95 q-106 -119 -260 -115 q-111 2 -163.5 65.5 q-52.5 63.5 -65.5 156.5 q-13 93 -4 182 l117 698 l172 0 l-117 -701 q-4 -42 -3 -98.5 q1 -56.5 23 -99.5 q22 -43 82 -46 q80 -4 139 37 q59 41 99 107 l138 801 l173 0 l-187 -1082 l-163 0 ZM548 1536 l141 -294 l-142 0 l-205 294 l206 0 Z" /><glyph glyph-name="uacute" unicode="ú" d="M566 0 l20 95 q-106 -119 -260 -115 q-111 2 -163.5 65.5 q-52.5 63.5 -65.5 156.5 q-13 93 -4 182 l117 698 l172 0 l-117 -701 q-4 -42 -3 -98.5 q1 -56.5 23 -99.5 q22 -43 82 -46 q80 -4 139 37 q59 41 99 107 l138 801 l173 0 l-187 -1082 l-163 0 ZM487 1242 l235 294 l230 0 l-306 -294 l-159 0 Z" /><glyph glyph-name="ucircumflex" unicode="û" d="M566 0 l20 95 q-106 -119 -260 -115 q-111 2 -163.5 65.5 q-52.5 63.5 -65.5 156.5 q-13 93 -4 182 l117 698 l172 0 l-117 -701 q-4 -42 -3 -98.5 q1 -56.5 23 -99.5 q22 -43 82 -46 q80 -4 139 37 q59 41 99 107 l138 801 l173 0 l-187 -1082 l-163 0 ZM684 1536 l169 -271 l0 -14 l-139 2 l-84 168 l-147 -167 l-140 -3 l0 15 l241 270 l100 0 Z" /><glyph glyph-name="udieresis" unicode="ü" d="M566 0 l20 95 q-106 -119 -260 -115 q-111 2 -163.5 65.5 q-52.5 63.5 -65.5 156.5 q-13 93 -4 182 l117 698 l172 0 l-117 -701 q-4 -42 -3 -98.5 q1 -56.5 23 -99.5 q22 -43 82 -46 q80 -4 139 37 q59 41 99 107 l138 801 l173 0 l-187 -1082 l-163 0 ZM300 1369 q1 46 30.5 77.5 q29.5 31.5 76.5 32.5 q47 1 77 -29 q30 -30 30 -77 q-1 -46 -31.5 -76 q-30.5 -30 -76.5 -31 q-45 -1 -75.5 28 q-30.5 29 -30.5 75 ZM718 1367 q0 46 29.5 77.5 q29.5 31.5 76.5 32.5 q47 1 77.5 -29 q30.5 -30 29.5 -77 q0 -46 -30.5 -76 q-30.5 -30 -76.5 -31 q-46 -1 -76 27.5 q-30 28.5 -30 75.5 Z" /><glyph glyph-name="yacute" unicode="ý" d="M316 -168 q-41 -96 -114.5 -185.5 q-73.5 -89.5 -191.5 -86.5 q-25 0 -49 5.5 q-24 5.5 -48 12.5 l17 150 q25 -5 36 -6 q91 -4 142 49.5 q51 53.5 83 129.5 l53 120 l-123 1061 l182 0 l58 -784 l326 784 l190 0 l-561 -1250 ZM438 1242 l235 294 l230 0 l-306 -294 l-159 0 Z" /><glyph glyph-name="ydieresis" unicode="ÿ" d="M316 -168 q-41 -96 -114.5 -185.5 q-73.5 -89.5 -191.5 -86.5 q-25 0 -49 5.5 q-24 5.5 -48 12.5 l17 150 q25 -5 36 -6 q91 -4 142 49.5 q51 53.5 83 129.5 l53 120 l-123 1061 l182 0 l58 -784 l326 784 l190 0 l-561 -1250 ZM251 1369 q1 46 30.5 77.5 q29.5 31.5 76.5 32.5 q47 1 77 -29 q30 -30 30 -77 q-1 -46 -31.5 -76 q-30.5 -30 -76.5 -31 q-45 -1 -75.5 28 q-30.5 29 -30.5 75 ZM669 1367 q0 46 29.5 77.5 q29.5 31.5 76.5 32.5 q47 1 77.5 -29 q30.5 -30 29.5 -77 q0 -46 -30.5 -76 q-30.5 -30 -76.5 -31 q-46 -1 -76 27.5 q-30 28.5 -30 75.5 Z" /><glyph glyph-name="Ydieresis" unicode="&#x178;" d="M377 1456 l160 -729 l416 729 l212 0 l-567 -923 l-92 -533 l-180 0 l97 555 l-241 901 l195 0 ZM398 1679 q1 46 30.5 77.5 q29.5 31.5 76.5 32.5 q47 1 77 -29 q30 -30 30 -77 q-1 -46 -31.5 -76 q-30.5 -30 -76.5 -31 q-45 -1 -75.5 28 q-30.5 29 -30.5 75 ZM816 1677 q0 46 29.5 77.5 q29.5 31.5 76.5 32.5 q47 1 77.5 -29 q30.5 -30 29.5 -77 q0 -46 -30.5 -76 q-30.5 -30 -76.5 -31 q-46 -1 -76 27.5 q-30 28.5 -30 75.5 Z" /></font>
</defs>
</svg>
